<svg width="325" height="26" viewBox="0 0 325 26" fill="none" xmlns="http://www.w3.org/2000/svg">
<path d="M38.432 5.2694V16.166H5.22726V5.2694H38.432ZM43.6646 0H0V21.4354H43.6646V0Z" fill="#00DFF0"/>
<path d="M69.7685 16.3882C68.4118 18.2531 65.9893 19.2615 63.2115 19.2615C57.8658 19.2615 54.4097 15.8515 54.4097 10.7556C54.4097 6.05543 57.8281 2.24976 62.8885 2.24976C65.634 2.24976 67.9866 3.0033 69.4455 4.54834L66.9852 8.7823C65.844 7.633 64.7781 7.2752 63.5668 7.2752C61.8926 7.2752 60.1107 8.45702 60.1107 10.7556C60.1107 13.0542 61.9626 14.236 63.6368 14.236C65.2033 14.236 66.3069 13.4825 67.2706 12.4416L69.7631 16.3882H69.7685Z" fill="white"/>
<path d="M73.2944 18.8278V2.67804H78.6401V11.1134L84.3411 2.67804H89.6868V18.8278H84.3411V10.3924L78.6401 18.8278H73.2944Z" fill="white"/>
<path d="M104.831 13.2656H99.6626V18.8278H94.3169V2.67804H99.6626V8.24018H104.831V2.67804H110.176V18.8278H104.831V13.2656Z" fill="white"/>
<path d="M128.851 17.4291C127.177 18.6868 124.894 19.2615 122.617 19.2615C117.341 19.2615 113.923 15.8515 113.923 10.7556C113.923 6.05543 117.341 2.24976 122.617 2.24976C126.751 2.24976 130.385 5.26394 130.385 9.85569C130.385 11.1134 130.278 11.829 130.062 12.5446H119.441C119.941 14.0896 121.438 14.7673 123.182 14.7673C125.034 14.7673 126.531 14.1547 127.387 13.618L128.846 17.4237L128.851 17.4291ZM119.263 8.9612H125.034C125.034 7.84985 124.146 6.7385 122.434 6.7385C120.722 6.7385 119.764 7.53 119.263 8.9612Z" fill="white"/>
<path d="M133.766 2.68347H138.579L143.392 8.17514L147.844 2.68347H152.511V18.8332H147.165V10.902L143.279 15.3853H143.171L139.106 10.902V18.8332H133.761V2.68347H133.766Z" fill="white"/>
<path d="M157.539 3.82732C158.82 3.03583 161.243 2.24976 163.488 2.24976C168.37 2.24976 170.152 4.72724 170.152 9.10215V18.8278H165.517V17.3586C164.731 18.47 163.057 19.0446 161.313 19.0446C158.427 19.0446 156.252 17.2123 156.252 13.9487C156.252 10.2894 158.853 8.6034 162.023 8.6034C163.45 8.6034 164.661 9.10757 165.162 9.49789C165.27 7.56253 164.376 6.73308 162.955 6.73308C161.065 6.73308 159.854 7.34568 158.858 7.736L157.539 3.8219V3.82732ZM165.167 13.7318V12.7289C164.667 12.3711 164.026 12.1922 163.138 12.1922C162.25 12.1922 161.604 12.6205 161.604 13.412C161.604 14.1276 162.244 14.5613 163.138 14.5613C164.209 14.5613 164.85 14.1655 165.167 13.7373V13.7318Z" fill="white"/>
<path d="M192.601 7.70349H187.611V18.8278H182.265V2.67804H197.947V18.8278H192.601V7.70349Z" fill="white"/>
<path d="M202.975 3.82732C204.256 3.03583 206.678 2.24976 208.923 2.24976C213.806 2.24976 215.588 4.72724 215.588 9.10215V18.8278H210.953V17.3586C210.167 18.47 208.493 19.0446 206.748 19.0446C203.863 19.0446 201.688 17.2123 201.688 13.9487C201.688 10.2894 204.288 8.6034 207.459 8.6034C208.886 8.6034 210.097 9.10757 210.597 9.49789C210.705 7.56253 209.812 6.73308 208.39 6.73308C206.501 6.73308 205.289 7.34568 204.294 7.736L202.975 3.8219V3.82732ZM210.603 13.7318V12.7289C210.102 12.3711 209.462 12.1922 208.573 12.1922C207.685 12.1922 207.039 12.6205 207.039 13.412C207.039 14.1276 207.68 14.5613 208.573 14.5613C209.645 14.5613 210.285 14.1655 210.603 13.7373V13.7318Z" fill="white"/>
<path d="M219.862 2.68345H225.208V3.90322C226.096 3.00872 227.7 2.24976 229.66 2.24976C233.972 2.24976 236.825 5.73016 236.825 10.5008C236.825 15.2715 233.402 19.256 228.201 19.256C227.098 19.256 225.956 19.0771 225.208 18.7519V26H219.862V2.67261V2.68345ZM225.208 8.71182V13.6288C225.994 14.0951 226.565 14.2414 227.701 14.2414C230.015 14.2414 231.119 12.588 231.119 10.6147C231.119 8.74977 230.015 7.2752 227.98 7.2752C226.947 7.2752 226.091 7.70348 225.203 8.71182H225.208Z" fill="white"/>
<path d="M240.567 2.68347H245.913V10.1485L250.262 2.68347H256.959L251.754 10.3653L257.74 18.8332H250.828L245.907 11.2978V18.8332H240.562V2.68347H240.567Z" fill="white"/>
<path d="M276.388 8.62505C274.606 8.60336 273.422 7.67634 273.422 5.99577C273.422 4.3152 274.633 3.40986 276.388 3.36649V2.65631H277.912V3.36649C279.645 3.40444 280.894 4.35315 280.894 5.99577C280.894 7.63839 279.683 8.60878 277.912 8.62505V9.53039H276.388V8.62505ZM276.388 7.21554V4.776C275.414 4.8031 275.042 5.34522 275.042 5.99577C275.042 6.77642 275.451 7.19385 276.388 7.21554ZM277.912 4.776V7.21554C278.913 7.19385 279.274 6.78184 279.274 5.99577C279.274 5.36149 278.929 4.8031 277.912 4.776Z" fill="white"/>
<path d="M285.308 2.61292C287.338 2.61292 288.856 3.94653 288.856 6.0879C288.856 8.22927 287.338 9.56289 285.308 9.56289C283.279 9.56289 281.761 8.22927 281.761 6.0879C281.761 4.13627 283.182 2.61292 285.308 2.61292ZM285.308 8.12627C286.579 8.12627 287.236 7.22635 287.236 6.0879C287.236 4.85729 286.385 4.04953 285.308 4.04953C284.232 4.04953 283.381 4.85729 283.381 6.0879C283.381 7.24262 284.237 8.12627 285.308 8.12627Z" fill="white"/>
<path d="M290.283 9.44904V2.72676C290.654 2.72676 291.806 2.70508 292.323 2.70508C294.353 2.70508 295.02 3.77305 295.02 4.93319C295.02 6.09333 294.094 7.18841 292.549 7.18841C292.404 7.18841 292.043 7.18841 291.806 7.1613V9.44904H290.283ZM291.806 4.1688V5.703C292.027 5.7301 292.285 5.75179 292.501 5.75179C292.899 5.75179 293.394 5.57831 293.394 4.92777C293.394 4.33144 293.012 4.15254 292.468 4.15254C292.269 4.15254 292.113 4.16338 291.801 4.17422L291.806 4.1688Z" fill="white"/>
<path d="M296.452 2.72675H297.986L300.048 5.56203L301.992 2.72675H303.429V9.44903H301.905V5.16628L300.048 7.79014H299.828L297.976 5.19881V9.45445H296.452V2.73217V2.72675Z" fill="white"/>
<path d="M308.834 7.85519C308.376 8.88521 307.806 9.44902 306.88 9.44902C306.487 9.44902 306.051 9.29722 305.868 9.15085L306.401 7.84434C306.584 7.96903 306.675 8.00698 306.869 8.00698C307.117 8.00698 307.278 7.93108 307.364 7.73592L307.45 7.53534L304.581 2.72131H306.309L308.188 6.00656L309.545 2.72131H311.079L308.839 7.84976L308.834 7.85519Z" fill="white"/>
<path d="M315.509 4.1688H314.039L313.894 5.43736C313.496 8.98282 312.656 9.70926 311.089 9.45446L311.116 7.92026C311.671 8.01784 312.241 7.80642 312.511 4.07663L312.607 2.73218H317.033V9.45446H315.509V4.17422V4.1688Z" fill="white"/>
<path d="M320.86 2.72675H322.222L325 9.44903H323.369L322.814 8.03952H320.171L319.617 9.44903H318.083L320.86 2.72675ZM320.747 6.59748H322.244L321.501 4.69464L320.747 6.59748Z" fill="white"/>
<path d="M273.998 12.0404H275.522V14.9678L277.707 12.0404H279.538L277.029 15.1413L279.737 18.7627H277.799L275.522 15.5642V18.7627H273.998V12.0404Z" fill="white"/>
<path d="M280.786 18.7627V12.0404H282.31V16.2201L285.265 12.0404H286.6V18.7627H285.077V14.5829L282.121 18.7627H280.786Z" fill="white"/>
<path d="M292.468 16.0575H290.035V18.7681H288.512V12.0458H290.035V14.6208H292.468V12.0458H293.992V18.7681H292.468V16.0575Z" fill="white"/>
<path d="M298.971 11.9265C301.001 11.9265 302.519 13.2601 302.519 15.4015C302.519 17.5429 301.001 18.8765 298.971 18.8765C296.942 18.8765 295.424 17.5429 295.424 15.4015C295.424 13.4499 296.845 11.9265 298.971 11.9265ZM298.971 17.4399C300.242 17.4399 300.899 16.54 300.899 15.4015C300.899 14.1709 300.048 13.3631 298.971 13.3631C297.895 13.3631 297.044 14.1709 297.044 15.4015C297.044 16.5562 297.9 17.4399 298.971 17.4399Z" fill="white"/>
</svg>
